<svg xmlns="http://www.w3.org/2000/svg" viewBox="0 0 200 200" role="img" aria-labelledby="title">
  <title id="title">Olive &amp; Ember crest: sun disc, amphora, and olive wreath</title>
  <defs>
    <g id="leaf">
      <path d="M0 0 C6 -7 14 -8 20 -2 C14 4 6 5 0 0 Z" fill="#6B7A3A"/>
    </g>
    <g id="branch">
      <path d="M0 0 Q30 -55 100 -78" fill="none" stroke="#6B7A3A" stroke-width="2.4" stroke-linecap="round"/>
      <use href="#leaf" transform="translate(10,-19) rotate(-60)"/>
      <use href="#leaf" transform="translate(11,-13) rotate(40) scale(-1,1)"/>
      <use href="#leaf" transform="translate(23,-37) rotate(-52)"/>
      <use href="#leaf" transform="translate(25,-31) rotate(46) scale(-1,1)"/>
      <use href="#leaf" transform="translate(40,-52) rotate(-42)"/>
      <use href="#leaf" transform="translate(43,-47) rotate(54) scale(-1,1)"/>
      <use href="#leaf" transform="translate(60,-64) rotate(-30)"/>
      <use href="#leaf" transform="translate(64,-59) rotate(64) scale(-1,1)"/>
      <use href="#leaf" transform="translate(82,-73) rotate(-18)"/>
      <circle cx="33" cy="-42" r="2.6" fill="#2A2421"/>
      <circle cx="54" cy="-58" r="2.6" fill="#2A2421"/>
    </g>
  </defs>

  <circle cx="100" cy="100" r="96" fill="#F4EDE2" stroke="#1F4E79" stroke-width="2"/>
  <circle cx="100" cy="100" r="88" fill="none" stroke="#D9A84E" stroke-width="1"/>

  <g transform="translate(100,50)">
    <circle r="14" fill="#D9A84E"/>
    <g stroke="#D9A84E" stroke-width="2" stroke-linecap="round">
      <line x1="0" y1="-20" x2="0" y2="-26"/>
      <line x1="14.1" y1="-14.1" x2="18.4" y2="-18.4"/>
      <line x1="-14.1" y1="-14.1" x2="-18.4" y2="-18.4"/>
      <line x1="20" y1="0" x2="26" y2="0"/>
      <line x1="-20" y1="0" x2="-26" y2="0"/>
    </g>
  </g>

  <g transform="translate(100,100)">
    <path d="M-9 -26 h18 v6 h-4 v6 c14 4 22 16 22 30 c0 16 -9 28 -18 34 h-18 c-9 -6 -18 -18 -18 -34 c0 -14 8 -26 22 -30 v-6 h-4 Z" fill="#C46A3B"/>
    <path d="M-16 -8 c-10 2 -18 12 -18 22 c0 6 4 10 8 10 c2 0 3 -2 2 -4 c-4 -6 -2 -16 8 -22 Z" fill="#C46A3B"/>
    <path d="M16 -8 c10 2 18 12 18 22 c0 6 -4 10 -8 10 c-2 0 -3 -2 -2 -4 c4 -6 2 -16 -8 -22 Z" fill="#C46A3B"/>
    <path d="M-12 8 h24 M-13 14 h26" stroke="#F4EDE2" stroke-width="1.6" stroke-linecap="round"/>
    <path d="M-16 44 h32 l3 5 h-38 Z" fill="#2A2421"/>
  </g>

  <g transform="translate(100,166) scale(0.8)">
    <use href="#branch" transform="translate(-6,0) scale(-1,1)"/>
    <use href="#branch" transform="translate(6,0)"/>
  </g>

  <path d="M55 180 q7.5 -5 15 0 t15 0 t15 0 t15 0 t15 0 t15 0" fill="none" stroke="#1F4E79" stroke-width="1.6" stroke-linecap="round" opacity="0.7"/>
</svg>
