<svg xmlns="http://www.w3.org/2000/svg" viewBox="0 0 120 120" role="img" aria-label="Ash &amp; Marrow">
  <circle cx="60" cy="60" r="56" fill="none" stroke="#C44A1A" stroke-width="2"/>
  <path d="M32 38 C40 30 50 36 58 48 L78 76 C86 88 80 96 70 90 L48 62 C38 48 28 44 32 38 Z" fill="none" stroke="#C8C0B4" stroke-width="2"/>
  <path d="M88 38 C80 30 70 36 62 48 L42 76 C34 88 40 96 50 90 L72 62 C82 48 92 44 88 38 Z" fill="none" stroke="#C8C0B4" stroke-width="2"/>
  <path d="M60 70 C56 62 56 54 60 44 C64 54 64 62 60 70 Z" fill="#C44A1A"/>
</svg>
