<svg xmlns="http://www.w3.org/2000/svg" viewBox="0 0 120 120" role="img" aria-label="The Mill House">
  <polygon points="60.00,4.00 64.70,12.23 70.93,5.08 73.93,14.07 81.43,8.26 82.63,17.67 91.11,13.44 90.45,22.90 99.60,20.40 97.10,29.55 106.56,28.89 102.33,37.37 111.74,38.57 105.93,46.07 114.92,49.07 107.77,55.30 116.00,60.00 107.77,64.70 114.92,70.93 105.93,73.93 111.74,81.43 102.33,82.63 106.56,91.11 97.10,90.45 99.60,99.60 90.45,97.10 91.11,106.56 82.63,102.33 81.43,111.74 73.93,105.93 70.93,114.92 64.70,107.77 60.00,116.00 55.30,107.77 49.07,114.92 46.07,105.93 38.57,111.74 37.37,102.33 28.89,106.56 29.55,97.10 20.40,99.60 22.90,90.45 13.44,91.11 17.67,82.63 8.26,81.43 14.07,73.93 5.08,70.93 12.23,64.70 4.00,60.00 12.23,55.30 5.08,49.07 14.07,46.07 8.26,38.57 17.67,37.37 13.44,28.89 22.90,29.55 20.40,20.40 29.55,22.90 28.89,13.44 37.37,17.67 38.57,8.26 46.07,14.07 49.07,5.08 55.30,12.23" fill="none" stroke="#C4A35A" stroke-width="1.6" stroke-linejoin="round"/>
  <circle cx="60" cy="60" r="38" fill="none" stroke="#C4A35A" stroke-width="1.4"/>
  <circle cx="60" cy="60" r="34" fill="none" stroke="#C4A35A" stroke-width="0.7"/>
  <text x="60" y="42" text-anchor="middle" fill="#C4A35A" font-family="Georgia, serif" font-size="7.2" letter-spacing="1.8">THE MILL HOUSE</text>
  <text x="60" y="68" text-anchor="middle" fill="#C4A35A" font-family="Georgia, serif" font-style="italic" font-size="16">Kitchen</text>
  <path d="M38 74 H82" fill="none" stroke="#C4A35A" stroke-width="0.7"/>
  <text x="60" y="86" text-anchor="middle" fill="#C4A35A" font-family="Georgia, serif" font-size="5.4" letter-spacing="1.6">FIRE · TABLE · SEASON</text>
</svg>
