<svg xmlns="http://www.w3.org/2000/svg" viewBox="0 0 80 80" fill="none" aria-hidden="true">
  <circle cx="40" cy="40" r="37.5" stroke="currentColor" stroke-width="0.75"/>
  <circle cx="40" cy="40" r="29" stroke="currentColor" stroke-width="0.4" opacity="0.55"/>
  <g stroke="currentColor" stroke-width="0.65" fill="none">
    <ellipse cx="40" cy="24.5" rx="6.2" ry="13.5"/>
    <ellipse cx="40" cy="24.5" rx="6.2" ry="13.5" transform="rotate(45 40 40)"/>
    <ellipse cx="40" cy="24.5" rx="6.2" ry="13.5" transform="rotate(90 40 40)"/>
    <ellipse cx="40" cy="24.5" rx="6.2" ry="13.5" transform="rotate(135 40 40)"/>
    <ellipse cx="40" cy="24.5" rx="6.2" ry="13.5" transform="rotate(180 40 40)"/>
    <ellipse cx="40" cy="24.5" rx="6.2" ry="13.5" transform="rotate(225 40 40)"/>
    <ellipse cx="40" cy="24.5" rx="6.2" ry="13.5" transform="rotate(270 40 40)"/>
    <ellipse cx="40" cy="24.5" rx="6.2" ry="13.5" transform="rotate(315 40 40)"/>
  </g>
  <circle cx="40" cy="40" r="3.15" fill="#C4A15A"/>
</svg>
